<?xml version="1.0" encoding="UTF-8" standalone="no"?>
<svg width="112px" height="32px" viewBox="0 0 112 32" version="1.1" xmlns="http://www.w3.org/2000/svg" xmlns:xlink="http://www.w3.org/1999/xlink">
    <!-- Generator: Sketch 3.6.1 (26313) - http://www.bohemiancoding.com/sketch -->
    <title>posseple_logo</title>
    <desc>Created with Sketch.</desc>
    <defs></defs>
    <g id="Home" stroke="none" stroke-width="1" fill="none" fill-rule="evenodd">
        <g id="1280-clear" transform="translate(-24.000000, -24.000000)" fill="#FFFFFF">
            <g id="navbar">
                <g id="posseple_logo" transform="translate(24.000000, 24.000000)">
                    <path d="M7.02844802,10.9178105 L0.134001388,14.8992842 C0.0510727035,14.9470737 3.15718341e-05,15.0356 3.15718341e-05,15.1312842 L3.15718341e-05,27.6945474 C3.15718341e-05,27.7902316 0.0510727035,27.8787579 0.134001388,27.9265474 L7.02844802,31.9080211 C7.20703937,32.0111789 7.43035747,31.8822316 7.43035747,31.6759158 L7.43035747,11.1499158 C7.43035747,10.9436 7.20703937,10.8146526 7.02844802,10.9178105" id="Fill-1"></path>
                    <path d="M0.401888399,4.01732632 L7.29633504,0.0358526316 C7.37926372,-0.0119368421 7.48145122,-0.0119368421 7.56427467,0.0358526316 L16.5842424,5.2448 C16.6671711,5.29258947 16.7182122,5.38111579 16.7182122,5.47690526 L16.7182122,10.6857474 L16.7182122,15.8945895 C16.7182122,15.9903789 16.6671711,16.0788 16.5842424,16.1266947 L9.68979577,20.1080632 C9.51120443,20.2112211 9.28788633,20.0822737 9.28788633,19.8760632 L9.28788633,9.76774737 C9.28788633,9.67195789 9.2368452,9.58353684 9.15391651,9.53564211 L0.401888399,4.48153684 C0.223297058,4.37837895 0.223297058,4.12048421 0.401888399,4.01732632" id="Fill-4"></path>
                    <path d="M27.7934537,15.8211053 L30.1820735,15.8211053 C31.829597,15.8211053 32.9827056,15.4297368 32.9827056,13.535 C32.9827056,11.4340526 31.2532006,11.4134211 30.1204032,11.4134211 L27.7934537,11.4134211 L27.7934537,15.8211053 Z M31.3559143,8.73594737 C34.7949289,8.73594737 36.6071522,10.3631053 36.6071522,13.6998421 C36.6071522,17.3865789 33.3739859,18.5192105 30.7381587,18.5192105 L27.7934537,18.5192105 L27.7934537,23.2773158 L24.1485907,23.2773158 L24.1485907,8.73594737 L31.3559143,8.73594737 Z" id="Fill-6"></path>
                    <path d="M42.8638583,14.7087684 C41.6693906,14.7087684 40.4131473,15.6151895 40.4131473,17.8602421 C40.4131473,19.6522421 41.1750809,21.0732947 43.0286633,21.0732947 C44.7789005,21.0732947 45.5613558,19.6108737 45.5613558,18.0044526 C45.5613558,15.7180316 44.5934686,14.7087684 42.8638583,14.7087684 M42.9873042,23.6068737 C40.186672,23.6068737 37.2216558,22.0825579 37.2216558,17.8396105 C37.2216558,15.1207684 38.8687584,12.1961368 42.8842747,12.1961368 C47.3939955,12.1961368 48.7736847,15.3269789 48.7736847,17.9014 C48.7736847,21.3822421 46.5911238,23.6068737 42.9873042,23.6068737" id="Fill-8"></path>
                    <path d="M57.1682038,15.5945684 C56.4680458,15.0180421 55.4383831,14.5236211 54.4293472,14.5236211 C53.7498161,14.5236211 52.9466287,14.7501474 52.9466287,15.3473053 C52.9466287,15.8624632 53.4409384,16.0273053 54.6968659,16.2741474 L55.45901,16.4183579 C57.7859594,16.8509895 59.3303483,17.7985684 59.3303483,19.7963579 C59.3303483,22.4739368 56.4884623,23.5452 54.2439153,23.5452 C51.5670448,23.5452 49.6587379,22.0306737 49.6587379,22.0306737 L51.0315865,19.6522526 C51.814147,20.4760421 53.0084042,21.1353053 54.1615129,21.1353053 C55.2119078,21.1353053 56.0767655,20.7643579 56.0767655,20.0846737 C56.0767655,19.4874105 55.5207855,19.3226737 54.3675717,19.1372 L53.3995793,18.9726737 C50.8461546,18.5399368 49.7960754,17.4276211 49.7960754,15.7800421 C49.7960754,13.9467789 51.3198373,12.1754105 54.3469448,12.1754105 C56.1795845,12.1754105 57.1191623,12.4278316 58.4688582,13.3413053 L57.1682038,15.5945684 Z" id="Fill-10"></path>
                    <path d="M67.9061635,15.5945684 C67.2060054,15.0180421 66.1763427,14.5236211 65.1673069,14.5236211 C64.4877758,14.5236211 63.6845883,14.7501474 63.6845883,15.3473053 C63.6845883,15.8624632 64.178898,16.0273053 65.4348255,16.2741474 L66.1969696,16.4183579 C68.523919,16.8509895 70.0683079,17.7985684 70.0683079,19.7963579 C70.0683079,22.4739368 67.2264219,23.5452 64.981875,23.5452 C62.3050044,23.5452 60.3966975,22.0306737 60.3966975,22.0306737 L61.7695461,19.6522526 C62.5521066,20.4760421 63.7463639,21.1353053 64.8994725,21.1353053 C65.9498674,21.1353053 66.8147252,20.7643579 66.8147252,20.0846737 C66.8147252,19.4874105 66.2587452,19.3226737 65.1055313,19.1372 L64.1375389,18.9726737 C61.5841142,18.5399368 60.534035,17.4276211 60.534035,15.7800421 C60.534035,13.9467789 62.0577969,12.1754105 65.0849044,12.1754105 C66.9175441,12.1754105 67.6459063,12.3818316 69.2016611,13.3502526 L67.9061635,15.5945684 Z" id="Fill-12"></path>
                    <path d="M78.5678455,16.5831474 L78.5678455,16.5831474 C78.5264864,15.3886211 77.7236147,14.4617789 76.4264333,14.4617789 C74.9230878,14.4617789 74.3053322,15.7179895 74.1611542,16.5831474 L74.1612594,16.5831474 L78.5678455,16.5831474 Z M74.1611542,18.5606211 L74.1611542,18.6840947 C74.1611542,20.1259895 75.1525098,21.3312526 76.6115495,21.2380947 C78.2032961,21.1364105 79.0114298,20.1352526 79.4417539,19.2436737 L79.4417539,19.2436737 L81.7183988,20.5584105 L81.7183988,20.5585158 C80.5035147,22.5976737 78.5885777,23.6686211 76.364342,23.6686211 C73.090448,23.6686211 70.9281984,21.5884105 70.9281984,18.1074632 C70.9281984,15.4090421 72.2459015,12.1960947 76.4467445,12.1960947 C80.4828877,12.1960947 81.8421604,15.4297789 81.8421604,18.4165158 L81.8421604,18.5606211 L74.1611542,18.5606211 Z" id="Fill-14"></path>
                    <path d="M88.5353261,21.1970316 C90.1621175,21.1970316 90.7594566,19.3844 90.7594566,17.7161895 C90.7594566,16.9951368 90.5329813,14.5235579 88.6177286,14.5235579 C87.4438878,14.5235579 86.3524495,15.5534526 86.3524495,18.0455579 C86.3524495,19.8374526 87.0733397,21.1970316 88.5353261,21.1970316 L88.5353261,21.1970316 Z M86.1259742,12.5257684 L86.1259742,13.5760842 C86.3524495,13.2260842 87.2380394,12.2785053 89.1326652,12.2785053 C92.2215482,12.2785053 93.8069805,14.8942947 93.8069805,17.8809263 C93.8069805,21.3411368 91.9950729,23.4831368 89.1326652,23.4831368 C87.999973,23.4831368 87.4234714,23.1537684 86.496838,22.5769263 L86.496838,27.0053474 L83.2842987,27.0053474 L83.2842987,12.5257684 L86.1259742,12.5257684 Z" id="Fill-16"></path>
                    <path d="M95.4739628,23.2772632 L98.6245161,23.2772632 L98.6245161,8.73589474 L95.4739628,8.73589474 L95.4739628,23.2772632 Z" id="Fill-18"></path>
                    <path d="M107.935618,16.5831895 L107.935618,16.5831895 C107.894364,15.3886632 107.091387,14.4618211 105.794206,14.4618211 C104.29086,14.4618211 103.673105,15.7180316 103.528927,16.5831895 L103.529032,16.5831895 L107.935618,16.5831895 Z M103.528927,18.5606632 L103.528927,18.6841368 C103.528927,20.1260316 104.517336,21.2381368 105.979322,21.2381368 C107.482668,21.2381368 108.480022,20.1295053 108.809527,19.2437158 L108.809527,19.2437158 L111.086172,20.5584526 L111.086172,20.5585579 C109.871287,22.5977158 107.95635,23.6686632 105.732115,23.6686632 C102.458221,23.6686632 100.295971,21.5884526 100.295971,18.1075053 C100.295971,15.4090842 101.613674,12.1961368 105.814517,12.1961368 C109.85066,12.1961368 111.209933,15.4298211 111.209933,18.4165579 L111.209933,18.5606632 L103.528927,18.5606632 Z" id="Fill-20"></path>
                </g>
            </g>
        </g>
    </g>
</svg>